# Blender v2.83.4 OBJ File: ''
# www.blender.org
mtllib bench_t04.mtl
o Cube
v 1.000000 2.000000 4.000000
v 1.000000 0.000000 4.000000
v 1.000000 2.000000 3.701519
v 1.000000 0.000000 3.701519
v 0.700000 2.000000 4.000000
v 0.700000 0.000000 4.000000
v 0.700000 0.000000 3.701519
v 0.700000 2.000000 3.701519
v -1.000000 2.000000 4.000000
v -1.000000 0.000000 4.000000
v -1.000000 2.000000 3.701519
v -1.000000 0.000000 3.701519
v -0.700000 2.000000 4.000000
v -0.700000 0.000000 4.000000
v -0.700000 0.000000 3.701519
v -0.700000 2.000000 3.701519
v 1.000000 2.000000 -4.000000
v 1.000000 0.000000 -4.000000
v 1.000000 2.000000 -3.701519
v 1.000000 0.000000 -3.701519
v 0.700000 2.000000 -4.000000
v 0.700000 0.000000 -4.000000
v 0.700000 0.000000 -3.701519
v 0.700000 2.000000 -3.701519
v -1.000000 2.000000 -4.000000
v -1.000000 0.000000 -4.000000
v -1.000000 2.000000 -3.701519
v -1.000000 0.000000 -3.701519
v -0.700000 2.000000 -4.000000
v -0.700000 0.000000 -4.000000
v -0.700000 0.000000 -3.701519
v -0.700000 2.000000 -3.701519
v 1.000000 1.800000 4.000000
v 1.000000 1.800000 3.701519
v 0.700000 1.800000 3.701519
v 0.700000 1.800000 4.000000
v -1.000000 1.800000 4.000000
v -1.000000 1.800000 3.701519
v -0.700000 1.800000 3.701519
v -0.700000 1.800000 4.000000
v -1.000000 1.800000 -4.000000
v -1.000000 1.800000 -3.701519
v -0.700000 1.800000 -3.701519
v -0.700000 1.800000 -4.000000
v 1.000000 1.800000 -4.000000
v 1.000000 1.800000 -3.701519
v 0.700000 1.800000 -3.701519
v 0.700000 1.800000 -4.000000
vt 0.250000 0.625190
vt 0.375000 0.625190
vt 0.375000 0.750000
vt 0.250000 0.750000
vt 0.500000 0.625190
vt 0.625000 0.625190
vt 0.625000 0.750000
vt 0.500000 0.750000
vt 0.500000 0.625190
vt 0.437500 0.812500
vt 0.437500 0.812500
vt 0.500000 0.625190
vt 0.625000 0.875000
vt 0.500000 0.875000
vt 0.750000 0.625190
vt 0.750000 0.750000
vt 0.250000 0.625190
vt 0.250000 0.750000
vt 0.375000 0.750000
vt 0.375000 0.625190
vt 0.500000 0.625190
vt 0.500000 0.750000
vt 0.625000 0.750000
vt 0.625000 0.625190
vt 0.750000 0.625190
vt 0.500000 0.875000
vt 0.625000 0.875000
vt 0.750000 0.750000
vt 0.250000 0.625190
vt 0.250000 0.750000
vt 0.375000 0.750000
vt 0.375000 0.625190
vt 0.500000 0.625190
vt 0.500000 0.750000
vt 0.625000 0.750000
vt 0.625000 0.625190
vt 0.500000 0.625190
vt 0.437500 0.812500
vt 0.437500 0.812500
vt 0.500000 0.625190
vt 0.500000 0.875000
vt 0.625000 0.875000
vt 0.750000 0.750000
vt 0.750000 0.625190
vt 0.250000 0.625190
vt 0.375000 0.625190
vt 0.375000 0.750000
vt 0.250000 0.750000
vt 0.500000 0.625190
vt 0.625000 0.625190
vt 0.625000 0.750000
vt 0.500000 0.750000
vt 0.750000 0.625190
vt 0.625000 0.875000
vt 0.500000 0.875000
vt 0.750000 0.750000
vt 0.375000 0.875000
vt 0.375000 0.875000
vt 0.375000 0.875000
vt 0.375000 0.875000
vn 0.0000 -1.0000 0.0000
vn 1.0000 0.0000 0.0000
vn 0.0000 0.0000 -1.0000
vn 0.0000 0.0000 1.0000
vn 0.0000 1.0000 0.0000
vn -1.0000 0.0000 0.0000
usemtl Material
s off
f 7/1/1 4/2/1 2/3/1 6/4/1
f 34/5/2 3/6/2 1/7/2 33/8/2
f 34/5/3 4/2/3 7/1/3 35/9/3
f 36/10/1 40/11/1 39/12/1 35/9/1
f 33/8/4 1/7/4 5/13/4 36/14/4
f 3/6/5 8/15/5 5/16/5 1/7/5
f 15/17/1 14/18/1 10/19/1 12/20/1
f 38/21/6 37/22/6 9/23/6 11/24/6
f 38/21/3 39/12/3 15/17/3 12/20/3
f 8/15/3 35/9/3 39/12/3 16/25/3
f 37/22/4 40/26/4 13/27/4 9/23/4
f 11/24/5 9/23/5 13/28/5 16/25/5
f 23/29/1 22/30/1 18/31/1 20/32/1
f 46/33/2 45/34/2 17/35/2 19/36/2
f 46/33/4 47/37/4 23/29/4 20/32/4
f 44/38/1 48/39/1 47/37/1 43/40/1
f 45/34/3 48/41/3 21/42/3 17/35/3
f 19/36/5 17/35/5 21/43/5 24/44/5
f 31/45/1 28/46/1 26/47/1 30/48/1
f 42/49/6 27/50/6 25/51/6 41/52/6
f 42/49/4 28/46/4 31/45/4 43/40/4
f 24/44/4 32/53/4 43/40/4 47/37/4
f 41/52/3 25/51/3 29/54/3 44/55/3
f 27/50/5 32/53/5 29/56/5 25/51/5
f 2/3/4 33/8/4 36/14/4 6/57/4
f 7/1/6 6/4/6 36/10/6 35/9/6
f 34/5/1 35/9/1 47/37/1 46/33/1
f 4/2/2 34/5/2 33/8/2 2/3/2
f 10/19/4 14/58/4 40/26/4 37/22/4
f 15/17/2 39/12/2 40/11/2 14/18/2
f 39/12/1 38/21/1 42/49/1 43/40/1
f 12/20/6 10/19/6 37/22/6 38/21/6
f 26/47/3 41/52/3 44/55/3 30/59/3
f 31/45/2 30/48/2 44/38/2 43/40/2
f 38/21/6 11/24/6 27/50/6 42/49/6
f 28/46/6 42/49/6 41/52/6 26/47/6
f 18/31/3 22/60/3 48/41/3 45/34/3
f 23/29/6 47/37/6 48/39/6 22/30/6
f 16/25/5 8/15/5 24/44/5 32/53/5
f 20/32/2 18/31/2 45/34/2 46/33/2
f 11/24/5 16/25/5 32/53/5 27/50/5
f 35/9/1 39/12/1 43/40/1 47/37/1
f 21/43/5 29/56/5 32/53/5 24/44/5
f 44/38/3 29/56/3 21/42/3 48/39/3
f 3/6/5 19/36/5 24/44/5 8/15/5
f 34/5/2 46/33/2 19/36/2 3/6/2
f 5/16/5 8/15/5 16/25/5 13/28/5
f 36/10/4 5/16/4 13/27/4 40/11/4
