# Blender v2.83.4 OBJ File: ''
# www.blender.org
mtllib ExitSign.mtl
o Cube
v 0.200000 0.493326 -0.893326
v 0.200000 -0.493326 -0.893326
v 0.200000 0.493326 0.893326
v 0.200000 -0.493326 0.893326
v -0.200000 0.600000 -1.000000
v -0.200000 -0.600000 -1.000000
v -0.200000 0.600000 1.000000
v -0.200000 -0.600000 1.000000
v 0.200000 0.600000 -1.000000
v 0.200000 -0.600000 -1.000000
v 0.200000 0.600000 1.000000
v 0.200000 -0.600000 1.000000
v -0.004475 0.493326 -0.893326
v -0.004475 -0.493326 -0.893326
v -0.004475 0.493326 0.893326
v -0.004475 -0.493326 0.893326
vt 0.625000 0.500000
vt 0.875000 0.500000
vt 0.875000 0.750000
vt 0.625000 0.750000
vt 0.375000 0.750000
vt 0.625000 1.000000
vt 0.375000 1.000000
vt 0.375000 0.000000
vt 0.625000 0.000000
vt 0.625000 0.250000
vt 0.375000 0.250000
vt 0.125000 0.500000
vt 0.375000 0.500000
vt 0.125000 0.750000
vt 0.602776 0.513334
vt 0.602776 0.736666
vt 0.602776 0.736666
vt 0.602776 0.513334
vt 0.397224 0.513334
vt 0.397224 0.736666
vt 0.397224 0.513334
vt 0.397224 0.736666
vn 0.0000 1.0000 0.0000
vn 0.0000 0.0000 1.0000
vn -1.0000 0.0000 0.0000
vn 0.0000 -1.0000 0.0000
vn 0.0000 0.0000 -1.0000
vn 1.0000 0.0000 0.0000
usemtl Material
s off
f 9/1/1 5/2/1 7/3/1 11/4/1
f 12/5/2 11/4/2 7/6/2 8/7/2
f 8/8/3 7/9/3 5/10/3 6/11/3
f 6/12/4 10/13/4 12/5/4 8/14/4
f 1/15/4 3/16/4 15/17/4 13/18/4
f 6/11/5 5/10/5 9/1/5 10/13/5
f 1/15/6 2/19/6 10/13/6 9/1/6
f 4/20/6 3/16/6 11/4/6 12/5/6
f 3/16/6 1/15/6 9/1/6 11/4/6
f 2/19/6 4/20/6 12/5/6 10/13/6
f 14/21/6 13/18/6 15/17/6 16/22/6
f 2/19/2 1/15/2 13/18/2 14/21/2
f 4/20/1 2/19/1 14/21/1 16/22/1
f 3/16/5 4/20/5 16/22/5 15/17/5
o Text
v 0.243256 0.285153 -0.864759
v 0.243256 0.285153 -0.367451
v 0.243256 0.208376 -0.367451
v 0.243256 0.208376 -0.573354
v 0.243256 -0.309871 -0.573354
v 0.243256 -0.309871 -0.658856
v 0.243256 0.208376 -0.658856
v 0.243256 0.208376 -0.864759
v 0.243256 0.285153 -0.286312
v 0.243256 0.285153 -0.200810
v 0.243256 -0.309871 -0.200810
v 0.243256 -0.309871 -0.286312
v 0.243256 0.285153 -0.116180
v 0.243256 0.285153 -0.013229
v 0.243256 0.058311 0.172607
v 0.243256 0.285153 0.359316
v 0.243256 0.285153 0.463140
v 0.243256 -0.001889 0.224955
v 0.243256 -0.309871 0.481462
v 0.243256 -0.309871 0.377638
v 0.243256 -0.063835 0.172607
v 0.243256 -0.309871 -0.029806
v 0.243256 -0.309871 -0.132757
v 0.243256 -0.001889 0.121132
v 0.243256 0.285153 0.516360
v 0.243256 0.285153 0.854006
v 0.243256 -0.309871 0.854006
v 0.243256 -0.309871 0.508508
v 0.243256 -0.233094 0.508508
v 0.243256 -0.233094 0.768504
v 0.243256 -0.048130 0.768504
v 0.243256 -0.048130 0.525085
v 0.243256 0.028647 0.525085
v 0.243256 0.028647 0.768504
v 0.243256 0.208376 0.768504
v 0.243256 0.208376 0.516360
v -0.011296 0.285153 -0.367451
v -0.011296 0.208376 -0.367451
v -0.011296 0.285153 -0.864759
v -0.011296 0.208376 -0.864759
v -0.011296 0.208376 -0.573354
v -0.011296 -0.309871 -0.573354
v -0.011296 0.208376 -0.658856
v -0.011296 -0.309871 -0.658856
v -0.011296 0.285153 -0.200810
v -0.011296 -0.309871 -0.200810
v -0.011296 0.285153 -0.286312
v -0.011296 -0.309871 -0.286312
v -0.011296 0.285153 0.463140
v -0.011296 -0.001889 0.224955
v -0.011296 0.285153 0.359316
v -0.011296 0.058311 0.172607
v -0.011296 0.285153 -0.013229
v -0.011296 0.285153 -0.116180
v -0.011296 -0.001889 0.121132
v -0.011296 -0.309871 0.481461
v -0.011296 -0.063835 0.172607
v -0.011296 -0.309871 -0.132757
v -0.011296 -0.309871 0.377638
v -0.011296 -0.309871 -0.029806
v -0.011296 0.285153 0.854006
v -0.011296 -0.309871 0.854006
v -0.011296 0.208376 0.768504
v -0.011296 0.285153 0.516360
v -0.011296 0.208376 0.516360
v -0.011296 0.028647 0.768504
v -0.011296 -0.048130 0.768504
v -0.011296 0.028647 0.525085
v -0.011296 -0.048130 0.525085
v -0.011296 -0.233094 0.768504
v -0.011296 -0.233094 0.508508
v -0.011296 -0.309871 0.508508
vt 0.285714 0.000000
vt 0.000000 0.000000
vt 0.142857 0.000000
vt 1.000000 0.000000
vt 0.428571 0.000000
vt 0.571429 0.000000
vt 0.857143 0.000000
vt 0.714286 0.000000
vt 0.666667 0.000000
vt 0.000000 0.000000
vt 0.333333 0.000000
vt 1.000000 0.000000
vt 0.454545 0.000000
vt 0.272727 0.000000
vt 0.363636 0.000000
vt 0.181818 0.000000
vt 0.000000 0.000000
vt 0.090909 0.000000
vt 1.000000 0.000000
vt 0.545455 0.000000
vt 0.727273 0.000000
vt 0.909091 0.000000
vt 0.636364 0.000000
vt 0.818182 0.000000
vt 0.181818 0.000000
vt 0.909091 0.000000
vt 0.090909 0.000000
vt 0.000000 0.000000
vt 1.000000 0.000000
vt 0.818182 0.000000
vt 0.545455 0.000000
vt 0.727273 0.000000
vt 0.636364 0.000000
vt 0.454545 0.000000
vt 0.363636 0.000000
vt 0.272727 0.000000
vt 0.285714 0.000000
vt 0.142857 0.000000
vt 0.000000 0.000000
vt 1.000000 0.000000
vt 0.428571 0.000000
vt 0.571429 0.000000
vt 0.857143 0.000000
vt 0.714286 0.000000
vt 0.666667 0.000000
vt 0.333333 0.000000
vt 0.000000 0.000000
vt 1.000000 0.000000
vt 0.454545 0.000000
vt 0.363636 0.000000
vt 0.272727 0.000000
vt 0.181818 0.000000
vt 0.090909 0.000000
vt 0.000000 0.000000
vt 1.000000 0.000000
vt 0.545455 0.000000
vt 0.727273 0.000000
vt 0.909091 0.000000
vt 0.636364 0.000000
vt 0.818182 0.000000
vt 0.181818 0.000000
vt 0.090909 0.000000
vt 0.909091 0.000000
vt 0.000000 0.000000
vt 1.000000 0.000000
vt 0.818182 0.000000
vt 0.545455 0.000000
vt 0.727273 0.000000
vt 0.636364 0.000000
vt 0.454545 0.000000
vt 0.363636 0.000000
vt 0.272727 0.000000
vn 1.0000 0.0000 0.0000
vn 0.0000 -1.0000 0.0000
vn 0.0000 0.0000 1.0000
vn -1.0000 0.0000 -0.0000
vn 0.0000 1.0000 0.0000
vn -0.0000 0.6355 -0.7721
vn 0.0000 -0.6402 -0.7682
vn -0.0000 0.6337 0.7736
vn 0.0000 -0.6353 0.7722
vn -0.0000 0.0000 -1.0000
vn 0.0000 -0.6372 -0.7707
vn -0.0000 0.6400 0.7684
vn -0.0000 -0.6386 0.7696
vn -0.0000 0.6361 -0.7716
usemtl None
s off
f 19/23/7 17/24/7 18/25/7
f 19/23/7 24/26/7 17/24/7
f 20/27/8 24/26/8 19/23/8
f 21/28/7 23/29/7 20/27/7
f 23/29/9 24/26/9 20/27/9
f 21/28/7 22/30/7 23/29/7
f 27/31/7 25/32/7 26/33/7
f 27/31/7 28/34/7 25/32/7
f 34/35/7 32/36/7 33/37/7
f 34/35/7 31/38/7 32/36/7
f 31/38/7 29/39/7 30/40/7
f 31/38/7 40/41/7 29/39/7
f 34/35/7 40/41/7 31/38/7
f 35/42/7 40/41/7 34/35/7
f 35/42/7 37/43/7 40/41/7
f 37/43/7 39/44/7 40/41/7
f 35/42/7 36/45/7 37/43/7
f 38/46/7 39/44/7 37/43/7
f 43/47/7 51/48/7 42/49/7
f 51/48/7 41/50/7 42/49/7
f 51/48/7 52/51/7 41/50/7
f 43/47/7 50/52/7 51/48/7
f 43/47/7 47/53/7 50/52/7
f 47/53/7 49/54/7 50/52/7
f 47/53/7 48/55/7 49/54/7
f 43/47/7 46/56/7 47/53/7
f 43/47/7 45/57/7 46/56/7
f 43/47/7 44/58/7 45/57/7
f 54/59/10 53/60/10 55/61/10
f 54/59/10 55/61/10 56/62/10
f 57/63/11 54/59/11 56/62/11
f 58/64/10 57/63/10 59/65/10
f 59/65/8 57/63/8 56/62/8
f 58/64/10 59/65/10 60/66/10
f 62/67/10 61/68/10 63/69/10
f 62/67/10 63/69/10 64/70/10
f 66/71/10 65/72/10 67/73/10
f 66/71/10 67/73/10 68/74/10
f 68/74/10 69/75/10 70/76/10
f 68/74/10 70/76/10 71/77/10
f 66/71/10 68/74/10 71/77/10
f 72/78/10 66/71/10 71/77/10
f 72/78/10 71/77/10 73/79/10
f 73/79/10 71/77/10 74/80/10
f 72/78/10 73/79/10 75/81/10
f 76/82/10 73/79/10 74/80/10
f 78/83/10 77/84/10 79/85/10
f 79/85/10 77/84/10 80/86/10
f 79/85/10 80/86/10 81/87/10
f 78/83/10 79/85/10 82/88/10
f 78/83/10 82/88/10 83/89/10
f 83/89/10 82/88/10 84/90/10
f 83/89/10 84/90/10 85/91/10
f 78/83/10 83/89/10 86/92/10
f 78/83/10 86/92/10 87/93/10
f 78/83/10 87/93/10 88/94/10
f 35/42/8 72/78/8 75/81/8 36/45/8
f 31/38/12 68/74/12 67/73/12 32/36/12
f 36/45/13 75/81/13 73/79/13 37/43/13
f 30/40/14 69/75/14 68/74/14 31/38/14
f 23/29/8 59/65/8 56/62/8 24/26/8
f 37/43/15 73/79/15 76/82/15 38/46/15
f 49/54/11 84/90/11 82/88/11 50/52/11
f 21/28/8 58/64/8 60/66/8 22/30/8
f 38/46/8 76/82/8 74/80/8 39/44/8
f 29/39/11 70/76/11 69/75/11 30/40/11
f 47/53/8 83/89/8 85/91/8 48/55/8
f 22/30/16 60/66/16 59/65/16 23/29/16
f 42/49/9 77/84/9 78/83/9 43/47/9
f 48/55/16 85/91/16 84/90/16 49/54/16
f 26/33/9 61/68/9 62/67/9 27/31/9
f 18/25/9 53/60/9 54/59/9 19/23/9
f 40/41/17 71/77/17 70/76/17 29/39/17
f 46/56/16 86/92/16 83/89/16 47/53/16
f 25/32/11 63/69/11 61/68/11 26/33/11
f 17/24/11 55/61/11 53/60/11 18/25/11
f 34/35/18 66/71/18 72/78/18 35/42/18
f 27/31/8 62/67/8 64/70/8 28/34/8
f 41/50/11 80/86/11 77/84/11 42/49/11
f 45/57/11 87/93/11 86/92/11 46/56/11
f 28/34/16 64/70/16 63/69/16 25/32/16
f 51/48/8 79/85/8 81/87/8 52/51/8
f 24/26/16 56/62/16 55/61/16 17/24/16
f 43/47/8 78/83/8 88/94/8 44/58/8
f 33/37/19 65/72/19 66/71/19 34/35/19
f 52/51/16 81/87/16 80/86/16 41/50/16
f 19/23/8 54/59/8 57/63/8 20/27/8
f 44/58/16 88/94/16 87/93/16 45/57/16
f 32/36/11 67/73/11 65/72/11 33/37/11
f 50/52/16 82/88/16 79/85/16 51/48/16
f 20/27/9 57/63/9 58/64/9 21/28/9
f 39/44/20 74/80/20 71/77/20 40/41/20
