# Blender v2.83.4 OBJ File: ''
# www.blender.org
mtllib rack_02.mtl
o Cube
v 1.000000 3.900000 -0.900000
v 1.000000 0.100000 -0.900000
v 1.000000 3.900000 0.900000
v 1.000000 0.100000 0.900000
v -1.000000 4.000000 -1.000000
v -1.000000 0.000000 -1.000000
v -1.000000 4.000000 1.000000
v -1.000000 0.000000 1.000000
v 1.000000 4.000000 -1.000000
v 1.000000 0.000000 -1.000000
v 1.000000 4.000000 1.000000
v 1.000000 0.000000 1.000000
v -0.900000 3.900000 -0.900000
v -0.900000 0.100000 -0.900000
v -0.900000 3.900000 0.900000
v -0.900000 0.100000 0.900000
v 1.000000 3.764706 -1.000000
v 1.000000 3.529412 -1.000000
v 1.000000 3.294118 -1.000000
v 1.000000 3.058824 -1.000000
v 1.000000 2.823529 -1.000000
v 1.000000 2.588235 -1.000000
v 1.000000 2.352941 -1.000000
v 1.000000 2.117647 -1.000000
v 1.000000 1.882353 -1.000000
v 1.000000 1.647059 -1.000000
v 1.000000 1.411765 -1.000000
v 1.000000 1.176471 -1.000000
v 1.000000 0.941177 -1.000000
v 1.000000 0.705882 -1.000000
v 1.000000 0.470588 -1.000000
v 1.000000 0.235294 -1.000000
v -1.000000 0.235294 1.000000
v -1.000000 0.470588 1.000000
v -1.000000 0.705882 1.000000
v -1.000000 0.941176 1.000000
v -1.000000 1.176471 1.000000
v -1.000000 1.411765 1.000000
v -1.000000 1.647059 1.000000
v -1.000000 1.882353 1.000000
v -1.000000 2.117647 1.000000
v -1.000000 2.352941 1.000000
v -1.000000 2.588235 1.000000
v -1.000000 2.823529 1.000000
v -1.000000 3.058824 1.000000
v -1.000000 3.294118 1.000000
v -1.000000 3.529412 1.000000
v -1.000000 3.764706 1.000000
v 1.000000 3.764706 1.000000
v 1.000000 3.529412 1.000000
v 1.000000 3.294118 1.000000
v 1.000000 3.058824 1.000000
v 1.000000 2.823529 1.000000
v 1.000000 2.588235 1.000000
v 1.000000 2.352941 1.000000
v 1.000000 2.117647 1.000000
v 1.000000 1.882353 1.000000
v 1.000000 1.647059 1.000000
v 1.000000 1.411765 1.000000
v 1.000000 1.176471 1.000000
v 1.000000 0.941177 1.000000
v 1.000000 0.705882 1.000000
v 1.000000 0.470588 1.000000
v 1.000000 0.235294 1.000000
v -1.000000 3.764706 -1.000000
v -1.000000 3.529412 -1.000000
v -1.000000 3.294118 -1.000000
v -1.000000 3.058824 -1.000000
v -1.000000 2.823529 -1.000000
v -1.000000 2.588235 -1.000000
v -1.000000 2.352941 -1.000000
v -1.000000 2.117647 -1.000000
v -1.000000 1.882353 -1.000000
v -1.000000 1.647059 -1.000000
v -1.000000 1.411765 -1.000000
v -1.000000 1.176471 -1.000000
v -1.000000 0.941177 -1.000000
v -1.000000 0.705882 -1.000000
v -1.000000 0.470588 -1.000000
v -1.000000 0.235294 -1.000000
v 1.000000 3.676471 -0.900000
v 1.000000 3.452941 -0.900000
v 1.000000 3.229412 -0.900000
v 1.000000 3.005883 -0.900000
v 1.000000 2.782353 -0.900000
v 1.000000 2.558824 -0.900000
v 1.000000 2.335294 -0.900000
v 1.000000 2.111765 -0.900000
v 1.000000 1.888235 -0.900000
v 1.000000 1.664706 -0.900000
v 1.000000 1.441177 -0.900000
v 1.000000 1.217647 -0.900000
v 1.000000 0.994118 -0.900000
v 1.000000 0.770588 -0.900000
v 1.000000 0.547059 -0.900000
v 1.000000 0.323529 -0.900000
v 1.000000 3.676471 0.900000
v 1.000000 3.452941 0.900000
v 1.000000 3.229412 0.900000
v 1.000000 3.005883 0.900000
v 1.000000 2.782353 0.900000
v 1.000000 2.558824 0.900000
v 1.000000 2.335294 0.900000
v 1.000000 2.111765 0.900000
v 1.000000 1.888235 0.900000
v 1.000000 1.664706 0.900000
v 1.000000 1.441177 0.900000
v 1.000000 1.217647 0.900000
v 1.000000 0.994118 0.900000
v 1.000000 0.770588 0.900000
v 1.000000 0.547059 0.900000
v 1.000000 0.323529 0.900000
v -0.900000 3.676471 -0.900000
v -0.900000 3.452941 -0.900000
v -0.900000 3.229412 -0.900000
v -0.900000 3.005883 -0.900000
v -0.900000 2.782353 -0.900000
v -0.900000 2.558824 -0.900000
v -0.900000 2.335294 -0.900000
v -0.900000 2.111765 -0.900000
v -0.900000 1.888235 -0.900000
v -0.900000 1.664706 -0.900000
v -0.900000 1.441177 -0.900000
v -0.900000 1.217647 -0.900000
v -0.900000 0.994118 -0.900000
v -0.900000 0.770588 -0.900000
v -0.900000 0.547059 -0.900000
v -0.900000 0.323529 -0.900000
v -0.900000 3.676471 0.900000
v -0.900000 3.452941 0.900000
v -0.900000 3.229412 0.900000
v -0.900000 3.005883 0.900000
v -0.900000 2.782353 0.900000
v -0.900000 2.558824 0.900000
v -0.900000 2.335294 0.900000
v -0.900000 2.111765 0.900000
v -0.900000 1.888235 0.900000
v -0.900000 1.664706 0.900000
v -0.900000 1.441177 0.900000
v -0.900000 1.217647 0.900000
v -0.900000 0.994118 0.900000
v -0.900000 0.770588 0.900000
v -0.900000 0.547059 0.900000
v -0.900000 0.323529 0.900000
v 0.800000 3.229412 -0.900000
v 0.800000 3.005883 -0.900000
v 0.800000 2.335294 -0.900000
v 0.800000 2.111765 -0.900000
v 0.800000 1.441177 -0.900000
v 0.800000 1.217647 -0.900000
v 0.800000 0.547059 -0.900000
v 0.800000 0.323529 -0.900000
v 0.800000 3.229412 0.900000
v 0.800000 3.005883 0.900000
v 0.800000 2.335294 0.900000
v 0.800000 2.111765 0.900000
v 0.800000 1.441177 0.900000
v 0.800000 1.217647 0.900000
v 0.800000 0.547059 0.900000
v 0.800000 0.323529 0.900000
vt 0.625000 0.500000
vt 0.875000 0.500000
vt 0.875000 0.750000
vt 0.625000 0.750000
vt 0.125000 0.500000
vt 0.375000 0.500000
vt 0.375000 0.750000
vt 0.125000 0.750000
vt 0.618750 0.512500
vt 0.618750 0.737500
vt 0.618750 0.737500
vt 0.618750 0.512500
vt 0.381250 0.512500
vt 0.381250 0.737500
vt 0.381250 0.512500
vt 0.381250 0.737500
vt 0.395221 0.737500
vt 0.395221 0.737500
vt 0.604779 0.512500
vt 0.604779 0.737500
vt 0.590809 0.737500
vt 0.576838 0.737500
vt 0.576838 0.512500
vt 0.590809 0.512500
vt 0.576838 0.737500
vt 0.562868 0.737500
vt 0.562868 0.737500
vt 0.520956 0.512500
vt 0.534926 0.512500
vt 0.548897 0.512500
vt 0.562868 0.512500
vt 0.562868 0.512500
vt 0.548897 0.512500
vt 0.534926 0.512500
vt 0.520956 0.512500
vt 0.520956 0.737500
vt 0.506985 0.737500
vt 0.506985 0.737500
vt 0.520956 0.737500
vt 0.409191 0.512500
vt 0.423162 0.512500
vt 0.437132 0.512500
vt 0.451103 0.512500
vt 0.451103 0.737500
vt 0.437132 0.737500
vt 0.423162 0.737500
vt 0.409191 0.737500
vt 0.465073 0.737500
vt 0.451103 0.737500
vt 0.465073 0.737500
vt 0.409191 0.737500
vt 0.395221 0.512500
vt 0.395221 0.512500
vt 0.409191 0.512500
vt 0.437132 0.737500
vt 0.423162 0.737500
vt 0.451103 0.512500
vt 0.465073 0.512500
vt 0.465073 0.512500
vt 0.479044 0.512500
vt 0.493015 0.512500
vt 0.506985 0.512500
vt 0.493015 0.737500
vt 0.479044 0.737500
vt 0.506985 0.512500
vt 0.479044 0.512500
vt 0.493015 0.512500
vt 0.576838 0.512500
vt 0.465073 0.512500
vt 0.451103 0.512500
vt 0.423162 0.512500
vt 0.437132 0.512500
vt 0.576838 0.737500
vt 0.576838 0.512500
vt 0.493015 0.737500
vt 0.479044 0.737500
vt 0.562868 0.512500
vt 0.548897 0.737500
vt 0.534926 0.737500
vt 0.534926 0.737500
vt 0.548897 0.737500
vt 0.562868 0.737500
vt 0.604779 0.512500
vt 0.590809 0.512500
vt 0.604779 0.737500
vt 0.610294 0.750000
vt 0.595588 0.750000
vt 0.580882 0.750000
vt 0.566176 0.750000
vt 0.551471 0.750000
vt 0.536765 0.750000
vt 0.522059 0.750000
vt 0.507353 0.750000
vt 0.492647 0.750000
vt 0.477941 0.750000
vt 0.463235 0.750000
vt 0.448529 0.750000
vt 0.433824 0.750000
vt 0.419118 0.750000
vt 0.404412 0.750000
vt 0.389706 0.750000
vt 0.590809 0.737500
vt 0.389706 0.500000
vt 0.404412 0.500000
vt 0.419118 0.500000
vt 0.433824 0.500000
vt 0.448529 0.500000
vt 0.463235 0.500000
vt 0.477941 0.500000
vt 0.492647 0.500000
vt 0.507353 0.500000
vt 0.522059 0.500000
vt 0.536765 0.500000
vt 0.551471 0.500000
vt 0.566176 0.500000
vt 0.580882 0.500000
vt 0.595588 0.500000
vt 0.610294 0.500000
vt 0.610294 0.250000
vt 0.625000 0.250000
vt 0.375000 0.250000
vt 0.389706 0.250000
vt 0.404412 0.250000
vt 0.419118 0.250000
vt 0.433824 0.250000
vt 0.448529 0.250000
vt 0.463235 0.250000
vt 0.477941 0.250000
vt 0.492647 0.250000
vt 0.507353 0.250000
vt 0.522059 0.250000
vt 0.536765 0.250000
vt 0.551471 0.250000
vt 0.566176 0.250000
vt 0.580882 0.250000
vt 0.595588 0.250000
vt 0.610294 0.000000
vt 0.625000 0.000000
vt 0.375000 0.000000
vt 0.389706 0.000000
vt 0.404412 0.000000
vt 0.419118 0.000000
vt 0.433824 0.000000
vt 0.448529 0.000000
vt 0.463235 0.000000
vt 0.477941 0.000000
vt 0.492647 0.000000
vt 0.507353 0.000000
vt 0.522059 0.000000
vt 0.536765 0.000000
vt 0.551471 0.000000
vt 0.566177 0.000000
vt 0.580882 0.000000
vt 0.595588 0.000000
vt 0.625000 1.000000
vt 0.610294 1.000000
vt 0.595588 1.000000
vt 0.580882 1.000000
vt 0.566177 1.000000
vt 0.551471 1.000000
vt 0.536765 1.000000
vt 0.522059 1.000000
vt 0.507353 1.000000
vt 0.492647 1.000000
vt 0.477941 1.000000
vt 0.463235 1.000000
vt 0.448529 1.000000
vt 0.433824 1.000000
vt 0.419118 1.000000
vt 0.404412 1.000000
vt 0.389706 1.000000
vt 0.375000 1.000000
vt 0.395221 0.512500
vt 0.409191 0.512500
vt 0.409191 0.737500
vt 0.395221 0.737500
vt 0.465073 0.737500
vt 0.451103 0.737500
vt 0.506985 0.512500
vt 0.520956 0.512500
vt 0.520956 0.737500
vt 0.506985 0.737500
vt 0.000000 0.000000
vt 0.000000 0.000000
vt 0.000000 0.000000
vt 0.000000 0.000000
vt 0.000000 0.000000
vt 0.000000 0.000000
vt 0.000000 0.000000
vt 0.000000 0.000000
vt 0.000000 0.000000
vt 0.000000 0.000000
vt 0.000000 0.000000
vt 0.000000 0.000000
vt 0.000000 0.000000
vt 0.000000 0.000000
vt 0.000000 0.000000
vt 0.000000 0.000000
vt 0.000000 0.000000
vt 0.000000 0.000000
vt 0.000000 0.000000
vt 0.000000 0.000000
vt 0.000000 0.000000
vt 0.000000 0.000000
vt 0.000000 0.000000
vt 0.000000 0.000000
vt 0.000000 0.000000
vt 0.000000 0.000000
vt 0.000000 0.000000
vt 0.000000 0.000000
vt 0.000000 0.000000
vt 0.000000 0.000000
vt 0.000000 0.000000
vt 0.000000 0.000000
vt 0.000000 0.000000
vt 0.000000 0.000000
vt 0.000000 0.000000
vt 0.000000 0.000000
vn 0.0000 1.0000 0.0000
vn 0.0000 -1.0000 0.0000
vn 1.0000 0.0000 0.0000
vn 0.0000 0.0000 -1.0000
vn 0.0000 0.0000 1.0000
vn -1.0000 0.0000 0.0000
usemtl Material
s off
f 9/1/1 5/2/1 7/3/1 11/4/1
f 6/5/2 10/6/2 12/7/2 8/8/2
f 1/9/2 3/10/2 15/11/2 13/12/2
f 3/10/3 1/9/3 9/1/3 11/4/3
f 2/13/3 4/14/3 12/7/3 10/6/3
f 4/14/1 2/13/1 14/15/1 16/16/1
f 112/17/4 4/14/4 16/16/4 144/18/4
f 113/19/3 13/12/3 15/11/3 129/20/3 130/21/3 131/22/3 115/23/3 114/24/3
f 99/25/4 100/26/4 132/27/4 131/22/4
f 87/28/5 86/29/5 85/30/5 84/31/5 116/32/5 117/33/5 118/34/5 119/35/5
f 103/36/4 104/37/4 136/38/4 135/39/4
f 127/40/3 126/41/3 125/42/3 124/43/3 140/44/3 141/45/3 142/46/3 143/47/3
f 107/48/4 108/49/4 140/44/4 139/50/4
f 111/51/4 112/17/4 144/18/4 143/47/4
f 2/13/5 96/52/5 128/53/5 14/15/5
f 96/52/5 95/54/5 127/40/5 128/53/5
f 108/49/4 109/55/4 110/56/4 111/51/4 143/47/4 142/46/4 141/45/4 140/44/4
f 92/57/5 91/58/5 123/59/5 124/43/5
f 123/59/3 122/60/3 121/61/3 120/62/3 136/38/3 137/63/3 138/64/3 139/50/3
f 88/65/5 87/28/5 119/35/5 120/62/5
f 91/58/5 90/66/5 89/67/5 88/65/5 120/62/5 121/61/5 122/60/5 123/59/5
f 84/31/5 83/68/5 115/23/5 116/32/5
f 14/15/3 128/53/3 144/18/3 16/16/3
f 124/43/4 123/59/4 149/69/4 150/70/4
f 95/54/5 94/71/5 93/72/5 92/57/5 124/43/5 125/42/5 126/41/5 127/40/5
f 115/23/1 131/22/1 153/73/1 145/74/1
f 104/37/4 105/75/4 106/76/4 107/48/4 139/50/4 138/64/4 137/63/4 136/38/4
f 116/32/4 115/23/4 145/74/4 146/77/4
f 100/26/4 101/78/4 102/79/4 103/36/4 135/39/4 134/80/4 133/81/4 132/27/4
f 132/27/2 116/32/2 146/77/2 154/82/2
f 81/83/5 1/9/5 13/12/5 113/19/5 114/24/5 115/23/5 83/68/5 82/84/5
f 119/35/3 118/34/3 117/33/3 116/32/3 132/27/3 133/81/3 134/80/3 135/39/3
f 97/85/3 3/10/3 11/4/3 49/86/3 50/87/3 51/88/3 52/89/3 53/90/3 54/91/3 55/92/3 56/93/3 57/94/3 58/95/3 59/96/3 60/97/3 61/98/3 62/99/3 63/100/3 64/101/3 12/7/3 4/14/3 112/17/3 111/51/3 110/56/3 109/55/3 108/49/3 107/48/3 106/76/3 105/75/3 104/37/3 103/36/3 102/79/3 101/78/3 100/26/3 99/25/3 98/102/3
f 96/52/3 2/13/3 10/6/3 32/103/3 31/104/3 30/105/3 29/106/3 28/107/3 27/108/3 26/109/3 25/110/3 24/111/3 23/112/3 22/113/3 21/114/3 20/115/3 19/116/3 18/117/3 17/118/3 9/1/3 1/9/3 81/83/3 82/84/3 83/68/3 84/31/3 85/30/3 86/29/3 87/28/3 88/65/3 89/67/3 90/66/3 91/58/3 92/57/3 93/72/3 94/71/3 95/54/3
f 65/119/4 5/120/4 9/1/4 17/118/4 18/117/4 19/116/4 20/115/4 21/114/4 22/113/4 23/112/4 24/111/4 25/110/4 26/109/4 27/108/4 28/107/4 29/106/4 30/105/4 31/104/4 32/103/4 10/6/4 6/121/4 80/122/4 79/123/4 78/124/4 77/125/4 76/126/4 75/127/4 74/128/4 73/129/4 72/130/4 71/131/4 70/132/4 69/133/4 68/134/4 67/135/4 66/136/4
f 48/137/6 7/138/6 5/120/6 65/119/6 66/136/6 67/135/6 68/134/6 69/133/6 70/132/6 71/131/6 72/130/6 73/129/6 74/128/6 75/127/6 76/126/6 77/125/6 78/124/6 79/123/6 80/122/6 6/121/6 8/139/6 33/140/6 34/141/6 35/142/6 36/143/6 37/144/6 38/145/6 39/146/6 40/147/6 41/148/6 42/149/6 43/150/6 44/151/6 45/152/6 46/153/6 47/154/6
f 3/10/4 97/85/4 98/102/4 99/25/4 131/22/4 130/21/4 129/20/4 15/11/4
f 49/86/5 11/4/5 7/155/5 48/156/5 47/157/5 46/158/5 45/159/5 44/160/5 43/161/5 42/162/5 41/163/5 40/164/5 39/165/5 38/166/5 37/167/5 36/168/5 35/169/5 34/170/5 33/171/5 8/172/5 12/7/5 64/101/5 63/100/5 62/99/5 61/98/5 60/97/5 59/96/5 58/95/5 57/94/5 56/93/5 55/92/5 54/91/5 53/90/5 52/89/5 51/88/5 50/87/5
f 152/173/3 151/174/3 159/175/3 160/176/3
f 150/70/3 149/69/3 157/177/3 158/178/3
f 148/179/3 147/180/3 155/181/3 156/182/3
f 146/77/3 145/74/3 153/73/3 154/82/3
f 144/18/2 128/53/2 152/173/2 160/176/2
f 131/22/5 132/27/5 154/82/5 153/73/5
f 127/40/1 143/47/1 159/175/1 151/174/1
f 139/50/5 140/44/5 158/178/5 157/177/5
f 140/44/2 124/43/2 150/70/2 158/178/2
f 123/59/1 139/50/1 157/177/1 149/69/1
f 120/62/4 119/35/4 147/180/4 148/179/4
f 128/53/4 127/40/4 151/174/4 152/173/4
f 136/38/2 120/62/2 148/179/2 156/182/2
f 135/39/5 136/38/5 156/182/5 155/181/5
f 119/35/1 135/39/1 155/181/1 147/180/1
f 143/47/5 144/18/5 160/176/5 159/175/5
f 111/183/3 112/184/3 4/185/3 3/186/3 97/187/3 98/188/3 99/189/3 100/190/3 101/191/3 102/192/3 103/193/3 104/194/3 105/195/3 106/196/3 107/197/3 108/198/3 109/199/3 110/200/3
f 96/201/5 95/202/5 94/203/5 93/204/5 92/205/5 91/206/5 90/207/5 89/208/5 88/209/5 87/210/5 86/211/5 85/212/5 84/213/5 83/214/5 82/215/5 81/216/5 1/217/5 2/218/5
o Cube.001
v 0.948643 3.900000 0.900000
v 0.948643 0.100000 0.900000
v 0.948643 3.900000 0.090000
v 0.948643 3.900000 0.810000
v 0.948643 0.100000 0.810000
v 0.948643 0.100000 0.090000
v 0.948643 0.163334 0.900000
v 0.948643 3.836667 0.900000
v 0.948643 0.163334 0.810000
v 0.948643 3.836667 0.810000
v 0.948643 0.163334 0.090000
v 0.948643 3.836667 0.090000
v 0.948643 1.807747 0.090000
v 0.948643 1.756714 0.042348
v 0.948643 1.853540 0.040195
v 0.995912 1.807747 0.090000
v 0.995912 1.756714 0.042348
v 0.995912 1.853540 0.040195
v 0.948643 3.900000 -0.900000
v 0.948643 0.100000 -0.900000
v 0.948643 3.900000 0.000000
v 0.948643 0.100000 0.000000
v 0.948643 3.900000 -0.090000
v 0.948643 3.900000 -0.810000
v 0.948643 0.100000 -0.810000
v 0.948643 0.100000 -0.090000
v 0.948643 0.163334 -0.900000
v 0.948643 3.836667 -0.900000
v 0.948643 0.163334 0.000000
v 0.948643 3.836667 0.000000
v 0.948643 0.163334 -0.810000
v 0.948643 3.836667 -0.810000
v 0.948643 0.163334 -0.090000
v 0.948643 3.836667 -0.090000
v 0.948643 1.807747 -0.090000
v 0.948643 1.803584 0.000000
v 0.948643 1.756714 -0.042348
v 0.948643 1.853540 -0.040195
v 0.995912 1.807747 -0.090000
v 0.995912 1.756714 -0.042348
v 0.995912 1.803584 0.000000
v 0.995912 1.853540 -0.040195
vt 0.000000 0.000000
vt 0.000000 0.000000
vt 0.000000 0.000000
vt 0.000000 0.000000
vt 0.000000 0.000000
vt 0.000000 0.000000
vt 0.000000 0.000000
vt 0.000000 0.000000
vt 0.000000 0.000000
vt 0.000000 0.000000
vt 0.000000 0.000000
vt 0.000000 0.000000
vt 0.000000 0.000000
vt 0.000000 0.000000
vt 0.000000 0.000000
vt 0.000000 0.000000
vt 0.000000 0.000000
vt 0.000000 0.000000
vt 0.000000 0.000000
vt 0.000000 0.000000
vt 0.000000 0.000000
vt 0.000000 0.000000
vt 0.000000 0.000000
vt 0.000000 0.000000
vt 0.000000 0.000000
vt 0.000000 0.000000
vt 0.000000 0.000000
vt 0.000000 0.000000
vt 0.000000 0.000000
vt 0.000000 0.000000
vt 0.000000 0.000000
vt 0.000000 0.000000
vt 0.000000 0.000000
vt 0.000000 0.000000
vt 0.000000 0.000000
vt 0.000000 0.000000
vt 0.000000 0.000000
vt 0.000000 0.000000
vt 0.000000 0.000000
vt 0.000000 0.000000
vt 0.000000 0.000000
vt 0.000000 0.000000
vn 1.0000 0.0000 0.0000
vn 0.0000 0.7361 0.6768
vn 0.0000 -0.6704 -0.7420
vn 0.0000 0.6269 -0.7791
vn 0.0000 -0.6825 0.7309
vn 0.0000 0.7361 -0.6768
vn 0.0000 -0.6704 0.7420
vn 0.0000 0.6269 0.7791
vn 0.0000 -0.6825 -0.7309
usemtl Material
s off
f 171/219/7 166/220/7 182/221/7 189/222/7
f 167/223/7 162/224/7 165/225/7 169/226/7
f 169/226/7 165/225/7 166/220/7 171/219/7
f 164/227/7 170/228/7 172/229/7 163/230/7
f 161/231/7 168/232/7 170/228/7 164/227/7
f 168/232/7 167/223/7 169/226/7 170/228/7
f 163/230/7 172/229/7 190/233/7 181/234/7
f 172/229/7 173/235/7 175/236/7 196/237/7 190/233/7
f 175/236/8 173/235/8 176/238/8 178/239/8
f 174/240/7 173/235/7 171/219/7 189/222/7 196/237/7
f 201/241/7 178/239/7 176/238/7 177/242/7
f 174/240/9 196/237/9 201/241/9 177/242/9
f 196/237/10 175/236/10 178/239/10 201/241/10
f 173/235/11 174/240/11 177/242/11 176/238/11
f 193/243/7 189/222/7 182/221/7 186/244/7
f 187/245/7 191/246/7 185/247/7 180/248/7
f 191/246/7 193/243/7 186/244/7 185/247/7
f 184/249/7 183/250/7 194/251/7 192/252/7
f 179/253/7 184/249/7 192/252/7 188/254/7
f 188/254/7 192/252/7 191/246/7 187/245/7
f 183/250/7 181/234/7 190/233/7 194/251/7
f 194/251/7 190/233/7 196/237/7 198/255/7 195/256/7
f 198/255/12 202/257/12 199/258/12 195/256/12
f 197/259/7 196/237/7 189/222/7 193/243/7 195/256/7
f 201/241/7 200/260/7 199/258/7 202/257/7
f 197/259/13 200/260/13 201/241/13 196/237/13
f 196/237/14 201/241/14 202/257/14 198/255/14
f 195/256/15 199/258/15 200/260/15 197/259/15
