# Blender v2.83.4 OBJ File: 'rack_01.blend'
# www.blender.org
mtllib rack_01.mtl
o Cube
v 1.025000 2.000000 2.025000
v 1.025000 0.000000 2.025000
v 1.025000 2.000000 1.775000
v 1.025000 0.000000 1.775000
v 0.775000 2.000000 2.025000
v 0.775000 0.000000 2.025000
v 0.775000 0.000000 1.775000
v 0.775000 2.000000 1.775000
v 1.025000 1.000000 2.025000
v 1.025000 1.000000 1.775000
v 0.775000 1.000000 1.775000
v 0.775000 1.000000 2.025000
v -1.025000 2.000000 2.025000
v -1.025000 0.000000 2.025000
v -1.025000 2.000000 1.775000
v -1.025000 0.000000 1.775000
v -0.775000 2.000000 2.025000
v -0.775000 0.000000 2.025000
v -0.775000 0.000000 1.775000
v -0.775000 2.000000 1.775000
v -1.025000 1.000000 2.025000
v -1.025000 1.000000 1.775000
v -0.775000 1.000000 1.775000
v -0.775000 1.000000 2.025000
v 1.025000 2.000000 -2.025000
v 1.025000 0.000000 -2.025000
v 1.025000 2.000000 -1.775000
v 1.025000 0.000000 -1.775000
v 0.775000 2.000000 -2.025000
v 0.775000 0.000000 -2.025000
v 0.775000 0.000000 -1.775000
v 0.775000 2.000000 -1.775000
v 1.025000 1.000000 -2.025000
v 1.025000 1.000000 -1.775000
v 0.775000 1.000000 -1.775000
v 0.775000 1.000000 -2.025000
v -1.025000 2.000000 -2.025000
v -1.025000 0.000000 -2.025000
v -1.025000 2.000000 -1.775000
v -1.025000 0.000000 -1.775000
v -0.775000 2.000000 -2.025000
v -0.775000 0.000000 -2.025000
v -0.775000 0.000000 -1.775000
v -0.775000 2.000000 -1.775000
v -1.025000 1.000000 -2.025000
v -1.025000 1.000000 -1.775000
v -0.775000 1.000000 -1.775000
v -0.775000 1.000000 -2.025000
v 0.775000 1.900000 1.775000
v 1.025000 1.900000 1.775000
v 0.775000 1.900000 2.025000
v 0.775000 0.900000 1.775000
v 1.025000 0.900000 1.775000
v 0.775000 0.900000 2.025000
v -0.775000 1.900000 1.775000
v -1.025000 1.900000 1.775000
v -0.775000 1.900000 2.025000
v -0.775000 0.900000 1.775000
v -1.025000 0.900000 1.775000
v -0.775000 0.900000 2.025000
v 0.775000 1.900000 -1.775000
v 1.025000 1.900000 -1.775000
v 0.775000 1.900000 -2.025000
v 0.775000 0.900000 -1.775000
v 1.025000 0.900000 -1.775000
v 0.775000 0.900000 -2.025000
v -0.775000 1.900000 -1.775000
v -1.025000 1.900000 -1.775000
v -0.775000 1.900000 -2.025000
v -0.775000 0.900000 -1.775000
v -1.025000 0.900000 -1.775000
v -0.775000 0.900000 -2.025000
vt 0.250000 0.625000
vt 0.375000 0.625000
vt 0.375000 0.750000
vt 0.250000 0.750000
vt 0.500000 0.625000
vt 0.625000 0.625000
vt 0.625000 0.750000
vt 0.500000 0.750000
vt 0.500000 0.625000
vt 0.437500 0.812500
vt 0.625000 0.875000
vt 0.750000 0.625000
vt 0.500000 0.875000
vt 0.750000 0.750000
vt 0.375000 0.875000
vt 0.250000 0.625000
vt 0.250000 0.750000
vt 0.375000 0.750000
vt 0.375000 0.625000
vt 0.500000 0.625000
vt 0.500000 0.750000
vt 0.625000 0.750000
vt 0.625000 0.625000
vt 0.500000 0.625000
vt 0.750000 0.625000
vt 0.625000 0.875000
vt 0.437500 0.812500
vt 0.500000 0.875000
vt 0.750000 0.750000
vt 0.375000 0.875000
vt 0.250000 0.625000
vt 0.250000 0.750000
vt 0.375000 0.750000
vt 0.375000 0.625000
vt 0.500000 0.625000
vt 0.500000 0.750000
vt 0.625000 0.750000
vt 0.625000 0.625000
vt 0.500000 0.625000
vt 0.750000 0.625000
vt 0.625000 0.875000
vt 0.437500 0.812500
vt 0.500000 0.875000
vt 0.750000 0.750000
vt 0.375000 0.875000
vt 0.250000 0.625000
vt 0.375000 0.625000
vt 0.375000 0.750000
vt 0.250000 0.750000
vt 0.500000 0.625000
vt 0.625000 0.625000
vt 0.625000 0.750000
vt 0.500000 0.750000
vt 0.500000 0.625000
vt 0.437500 0.812500
vt 0.625000 0.875000
vt 0.750000 0.625000
vt 0.500000 0.875000
vt 0.750000 0.750000
vt 0.375000 0.875000
vt 0.000000 0.000000
vt 0.000000 0.000000
vt 0.000000 0.000000
vt 0.000000 0.000000
vt 0.500000 0.625000
vt 0.500000 0.625000
vt 0.500000 0.625000
vt 0.437500 0.812500
vt 0.437500 0.812500
vt 0.500000 0.625000
vt 0.500000 0.625000
vt 0.437500 0.812500
vt 0.437500 0.812500
vt 0.500000 0.625000
vt 0.500000 0.625000
vt 0.500000 0.625000
vt 0.625000 0.875000
vt 0.750000 0.625000
vt 0.625000 0.625000
vt 0.625000 0.625000
vt 0.750000 0.625000
vt 0.625000 0.875000
vt 0.625000 0.875000
vt 0.750000 0.625000
vt 0.625000 0.625000
vt 0.625000 0.625000
vt 0.750000 0.625000
vt 0.625000 0.875000
vt 0.750000 0.750000
vt 0.000000 0.000000
vt 0.000000 0.000000
vt 0.000000 0.000000
vt 0.000000 0.000000
vt 0.000000 0.000000
vt 0.000000 0.000000
vt 0.000000 0.000000
vt 0.000000 0.000000
vt 0.000000 0.000000
vt 0.000000 0.000000
vt 0.000000 0.000000
vt 0.000000 0.000000
vt 0.750000 0.750000
vt 0.750000 0.750000
vt 0.000000 0.000000
vt 0.000000 0.000000
vt 0.000000 0.000000
vt 0.000000 0.000000
vt 0.000000 0.000000
vt 0.000000 0.000000
vt 0.000000 0.000000
vt 0.000000 0.000000
vt 0.000000 0.000000
vt 0.000000 0.000000
vt 0.000000 0.000000
vt 0.000000 0.000000
vt 0.750000 0.750000
vt 0.000000 0.000000
vt 0.000000 0.000000
vt 0.000000 0.000000
vt 0.000000 0.000000
vt 0.000000 0.000000
vt 0.000000 0.000000
vt 0.000000 0.000000
vt 0.000000 0.000000
vt 0.000000 0.000000
vt 0.000000 0.000000
vt 0.000000 0.000000
vt 0.000000 0.000000
vn 0.0000 -1.0000 0.0000
vn 1.0000 0.0000 0.0000
vn -1.0000 0.0000 0.0000
vn 0.0000 0.0000 -1.0000
vn 0.0000 0.0000 1.0000
vn 0.0000 1.0000 0.0000
usemtl Material
s off
f 7/1/1 4/2/1 2/3/1 6/4/1
f 10/5/2 3/6/2 1/7/2 9/8/2
f 11/9/3 12/10/3 5/11/3 8/12/3
f 10/5/4 11/9/4 8/12/4 3/6/4
f 9/8/5 1/7/5 5/11/5 12/13/5
f 3/6/6 8/12/6 5/14/6 1/7/6
f 2/3/5 9/8/5 12/13/5 6/15/5
f 4/2/4 7/1/4 11/9/4 10/5/4
f 7/1/3 6/4/3 12/10/3 11/9/3
f 4/2/2 10/5/2 9/8/2 2/3/2
f 19/16/1 18/17/1 14/18/1 16/19/1
f 22/20/3 21/21/3 13/22/3 15/23/3
f 23/24/2 20/25/2 17/26/2 24/27/2
f 22/20/4 15/23/4 20/25/4 23/24/4
f 21/21/5 24/28/5 17/26/5 13/22/5
f 15/23/6 13/22/6 17/29/6 20/25/6
f 14/18/5 18/30/5 24/28/5 21/21/5
f 16/19/4 22/20/4 23/24/4 19/16/4
f 19/16/2 23/24/2 24/27/2 18/17/2
f 16/19/3 14/18/3 21/21/3 22/20/3
f 31/31/1 30/32/1 26/33/1 28/34/1
f 34/35/2 33/36/2 25/37/2 27/38/2
f 35/39/3 32/40/3 29/41/3 36/42/3
f 34/35/5 27/38/5 32/40/5 35/39/5
f 33/36/4 36/43/4 29/41/4 25/37/4
f 27/38/6 25/37/6 29/44/6 32/40/6
f 26/33/4 30/45/4 36/43/4 33/36/4
f 28/34/5 34/35/5 35/39/5 31/31/5
f 31/31/3 35/39/3 36/42/3 30/32/3
f 28/34/2 26/33/2 33/36/2 34/35/2
f 43/46/1 40/47/1 38/48/1 42/49/1
f 46/50/3 39/51/3 37/52/3 45/53/3
f 47/54/2 48/55/2 41/56/2 44/57/2
f 46/50/5 47/54/5 44/57/5 39/51/5
f 45/53/4 37/52/4 41/56/4 48/58/4
f 39/51/6 44/57/6 41/59/6 37/52/6
f 38/48/4 45/53/4 48/58/4 42/60/4
f 40/47/5 43/46/5 47/54/5 46/50/5
f 43/46/2 42/49/2 48/55/2 47/54/2
f 40/47/3 46/50/3 45/53/3 38/48/3
f 22/61/3 46/62/3 71/63/3 59/64/3
f 23/24/5 22/20/5 59/65/5 58/66/5
f 52/67/1 54/68/1 60/69/1 58/66/1 59/65/1 71/70/1 70/71/1 72/72/1 66/73/1 64/74/1 65/75/1 53/76/1
f 57/77/1 55/78/1 56/79/1 68/80/1 67/81/1 69/82/1 63/83/1 61/84/1 62/85/1 50/86/1 49/87/1 51/88/1
f 27/38/4 62/85/4 61/84/4 32/40/4
f 24/27/3 23/24/3 58/66/3 60/69/3
f 20/25/3 55/78/3 57/89/3 17/29/3
f 48/90/4 36/91/4 66/92/4 72/93/4
f 10/5/5 11/9/5 52/67/5 53/76/5
f 34/94/2 10/95/2 53/96/2 65/97/2
f 15/23/5 56/79/5 55/78/5 20/25/5
f 46/50/4 47/54/4 70/71/4 71/70/4
f 11/9/2 12/10/2 54/68/2 52/67/2
f 17/98/5 57/99/5 51/100/5 5/101/5
f 5/14/2 51/102/2 49/87/2 8/12/2
f 47/54/3 48/55/3 72/72/3 70/71/3
f 41/59/3 69/103/3 67/81/3 44/57/3
f 3/104/2 50/105/2 62/106/2 27/107/2
f 8/12/5 49/87/5 50/86/5 3/6/5
f 35/39/4 34/35/4 65/75/4 64/74/4
f 29/108/4 63/109/4 69/110/4 41/111/4
f 44/57/4 67/81/4 68/80/4 39/51/4
f 36/42/2 35/39/2 64/74/2 66/73/2
f 39/112/3 68/113/3 56/114/3 15/115/3
f 32/40/2 61/84/2 63/116/2 29/44/2
f 12/117/5 24/118/5 60/119/5 54/120/5
f 27/107/6 25/121/6 37/122/6 39/112/6 15/115/6 13/123/6 1/124/6 3/104/6
f 10/95/6 34/94/6 33/125/6 45/126/6 46/62/6 22/61/6 21/127/6 9/128/6
