# Blender v2.83.4 OBJ File: ''
# www.blender.org
mtllib StairsTile.mtl
o Cube
v 1.000000 1.000000 -1.000000
v 1.000000 -1.000000 -1.000000
v 1.000000 -1.000000 1.000000
v -1.000000 1.000000 -1.000000
v -1.000000 -1.000000 -1.000000
v -1.000000 -1.000000 1.000000
v 1.000000 -0.600000 1.000000
v 1.000000 -0.600000 0.600000
v 1.000000 -0.200000 0.600000
v 1.000000 -0.200000 0.200000
v 1.000000 0.200000 0.200000
v 1.000000 0.200000 -0.200000
v 1.000000 0.600000 -0.200000
v 1.000000 0.600000 -0.600000
v 1.000000 1.000000 -0.600000
v -1.000000 -0.600000 1.000000
v -1.000000 -0.600000 0.600000
v -1.000000 -0.200000 0.600000
v -1.000000 -0.200000 0.200000
v -1.000000 0.200000 0.200000
v -1.000000 0.200000 -0.200000
v -1.000000 0.600000 -0.200000
v -1.000000 0.600000 -0.600000
v -1.000000 1.000000 -0.600000
vt 0.400000 0.725000
vt 0.175000 0.700000
vt 0.125000 0.750000
vt 0.375000 0.750000
vt 0.375000 0.250000
vt 0.225000 0.650000
vt 0.275000 0.600000
vt 0.325000 0.550000
vt 0.375000 0.500000
vt 0.425000 0.450000
vt 0.475000 0.400000
vt 0.525000 0.350000
vt 0.575000 0.300000
vt 0.625000 0.250000
vt 0.125000 0.500000
vt 0.375000 0.500000
vt 0.625000 0.500000
vt 0.600000 0.525000
vt 0.575000 0.550000
vt 0.550000 0.575000
vt 0.525000 0.600000
vt 0.500000 0.625000
vt 0.475000 0.650000
vt 0.450000 0.675000
vt 0.425000 0.700000
vn 0.0000 0.0000 1.0000
vn -1.0000 0.0000 0.0000
vn 0.0000 -1.0000 0.0000
vn 1.0000 0.0000 0.0000
vn 0.0000 0.0000 -1.0000
vn 0.0000 1.0000 0.0000
usemtl Material
s off
f 7/1/1 16/2/1 6/3/1 3/4/1
f 5/5/2 6/3/2 16/2/2 17/6/2 18/7/2 19/8/2 20/9/2 21/10/2 22/11/2 23/12/2 24/13/2 4/14/2
f 5/15/3 2/16/3 3/4/3 6/3/3
f 1/17/4 15/18/4 14/19/4 13/20/4 12/21/4 11/22/4 10/23/4 9/24/4 8/25/4 7/1/4 3/4/4 2/16/4
f 5/5/5 4/14/5 1/17/5 2/16/5
f 1/17/6 4/14/6 24/13/6 15/18/6
f 15/18/1 24/13/1 23/12/1 14/19/1
f 14/19/6 23/12/6 22/11/6 13/20/6
f 13/20/1 22/11/1 21/10/1 12/21/1
f 12/21/6 21/10/6 20/9/6 11/22/6
f 11/22/1 20/9/1 19/8/1 10/23/1
f 10/23/6 19/8/6 18/7/6 9/24/6
f 9/24/1 18/7/1 17/6/1 8/25/1
f 8/25/6 17/6/6 16/2/6 7/1/6
